<svg xmlns="http://www.w3.org/2000/svg" viewBox="0 0 199.7 184.2">
  <style>
    @media (prefers-color-scheme: dark) {
      svg { fill: white; }
    }
  </style>
  <path d="m 138.64172,13.329297 c -6.59183,-0.159333 -13.25683,-5.193301 -16.56003,-11.0399635 -3.8026,1.4030569 -20.05207,4.4791781 -20.73042,9.1379205 -0.54953,3.774176 8.4472,12.379364 11.44159,13.030858 7.34088,1.597109 21.51025,-5.600609 25.84886,-11.128815 m -26.23681,31.388157 c -8.39086,4.675208 -28.270922,8.231005 -31.288605,18.729275 l 13.636164,-6.293612 c 3.133275,8.796903 -1.194529,17.602606 -3.572571,26.223397 -4.578604,16.598348 -13.056417,39.272156 -9.210494,56.638336 1.805324,8.15233 15.981439,8.39517 21.665626,4.87704 9.45364,-5.85096 22.66195,-14.28468 26.31036,-25.28487 -6.27893,2.47968 -12.64619,14.46902 -18.86228,14.46797 -9.14578,0 -5.26786,-16.96129 -4.52511,-21.81052 2.21011,-14.429375 6.11351,-29.169765 10.74351,-43.006376 2.55238,-7.627542 1.66397,-18.286778 -4.8966,-24.54064" />
</svg>
